<?xml version="1.0" encoding="utf-8"?>
<!-- Generator: Adobe Illustrator 26.5.0, SVG Export Plug-In . SVG Version: 6.00 Build 0)  -->
<svg version="1.1" id="Calque_1" xmlns="http://www.w3.org/2000/svg" xmlns:xlink="http://www.w3.org/1999/xlink" x="0px" y="0px"
	 viewBox="0 0 24 24" style="enable-background:new 0 0 24 24;" xml:space="preserve">
<style type="text/css">
	.st0{fill:#FFFFFF;}
</style>
<path class="st0" d="M21.3,10l-1.7-0.6c-0.1-0.4-0.3-0.7-0.4-1.1L20,6.8c0.2-0.4,0.1-0.8-0.2-1.2l-1.4-1.4c-0.3-0.3-0.8-0.4-1.2-0.2
	l-1.6,0.8c-0.3-0.2-0.7-0.3-1.1-0.4L14,2.7C13.9,2.3,13.4,2,13,2h-2c-0.4,0-0.8,0.3-0.9,0.7L9.5,4.4C9.1,4.5,8.8,4.7,8.4,4.8L6.8,4
	C6.4,3.8,5.9,3.9,5.6,4.2L4.2,5.6C3.9,5.9,3.8,6.4,4,6.8l0.8,1.6C4.7,8.8,4.5,9.1,4.4,9.5L2.7,10C2.3,10.2,2,10.6,2,11v2
	c0,0.4,0.3,0.8,0.7,0.9l1.7,0.6c0.1,0.4,0.3,0.7,0.4,1.1L4,17.2c-0.2,0.4-0.1,0.8,0.2,1.1l1.4,1.4c0.3,0.3,0.8,0.4,1.2,0.2l1.6-0.8
	c0.3,0.2,0.7,0.3,1.1,0.4l0.6,1.7c0.1,0.4,0.5,0.7,0.9,0.6h2c0.4,0,0.8-0.3,0.9-0.7l0.6-1.7c0.4-0.1,0.7-0.3,1.1-0.4l1.6,0.8
	c0.4,0.2,0.8,0.1,1.1-0.2l1.4-1.4c0.3-0.3,0.4-0.8,0.2-1.1l-0.8-1.6c0.2-0.3,0.3-0.7,0.4-1.1l1.7-0.5c0.4-0.1,0.7-0.6,0.7-1v-2
	C22,10.6,21.7,10.2,21.3,10z M12,16c-2.2,0-4-1.8-4-4s1.8-4,4-4s4,1.8,4,4S14.2,16,12,16z"/>
</svg>
