<?xml version="1.0" encoding="utf-8"?>
<!-- Generator: Adobe Illustrator 26.5.0, SVG Export Plug-In . SVG Version: 6.00 Build 0)  -->
<svg version="1.1" id="Calque_1" xmlns="http://www.w3.org/2000/svg" xmlns:xlink="http://www.w3.org/1999/xlink" x="0px" y="0px"
	 viewBox="0 0 512 512" style="enable-background:new 0 0 512 512;" xml:space="preserve">
<circle cx="256" cy="256" r="128.3"/>
<path d="M367.9,158.9l7.8-7.8c3.8-3.8,3.8-10,0-13.8c-3.8-3.8-10-3.8-13.8,0l-7.8,7.8l-21.5-21.5c-5.1-5.1-13.5-5.1-18.6,0
	l-13.8,13.8c-13.6-5-28.3-7.9-43.7-7.9c-70.1,0-126.9,56.8-126.9,126.9s56.8,126.9,126.9,126.9s126.9-56.8,126.9-126.9
	c0-15.4-2.9-30-7.9-43.6l13.8-13.8c5.1-5.1,5.1-13.5,0-18.6L367.9,158.9z M256.6,188.1c-37.6,0-68.3,30.7-68.3,68.3
	c0,5.4-4.4,9.8-9.8,9.8s-9.8-4.4-9.8-9.8c0-48.4,39.4-87.8,87.8-87.8c5.4,0,9.8,4.4,9.8,9.8S261.9,188.1,256.6,188.1z M440.2,107.1
	L416,97l-10.1-24.2c-1.2-2.4-4.7-2.3-5.8,0L390,97l-24.2,10.1c-2.4,1.2-2.3,4.7,0,5.8L390,123l10.1,24.2c1.1,2.3,4.6,2.4,5.8,0
	L416,123l24.2-10.1C442.6,111.8,442.6,108.3,440.2,107.1z"/>
</svg>
